<svg id="Layer_1" data-name="Layer 1" xmlns="http://www.w3.org/2000/svg" viewBox="0 0 391.08 391.08">
    <defs>
        <style>.cls-1{fill:#fff;stroke:#666766;stroke-miterlimit:10;stroke-width:3px;}.cls-2{fill:#6c6d6d;}</style>
    </defs>
    <title>Icon_home_remixofdynamitt</title>
    <!--<rect class="cls-1" x="1.5" y="1.5" width="388.08" height="388.08"/>-->
    <g id="layer1">
    <path id="rect2391" class="cls-2" d="M326.67,203.55L200.38,91.71,74,203.6V363.47a7.44,7.44,0,0,0,7.46,7.45h79v-70.1a7.44,7.44,0,0,1,7.45-7.46h64.88a7.44,7.44,0,0,1,7.45,7.46v70.1h79a7.42,7.42,0,0,0,7.45-7.45V203.55Z" transform="translate(-4.8 -5.17)"/>
    <path id="path2399" class="cls-2" d="M199.65,30.51L20.44,189.19l18.88,21.29L200.38,67.86l161,142.62,18.84-21.29L201.08,30.51l-0.7.81-0.73-.81h0Z" transform="translate(-4.8 -5.17)"/>
    <path id="rect2404" class="cls-2" d="M74,53.35h45.43l-0.4,26.91L74,120.94V53.35h0Z" transform="translate(-4.8 -5.17)"/></g>
</svg>